#Comment line ignore any data following # character 
#Hierarchical Translation and Rotation (.htr) file 
[Header]	
#Header keywords are followed by a single value 
FileType HTR		#Single word string
DataType HTRS		#Translation followed by rotation and scale data
FileVersion 1		#integer
NumSegments 84		#integer
NumFrames 2		#integer
DataFrameRate 30		#integer, data frame rate in this file
EulerRotationOrder ZYX
CalibrationUnits mm
RotationUnits Degrees
GlobalAxisofGravity Y
BoneLengthAxis Y
ScaleFactor 1.00
[SegmentNames&Hierarchy]
#CHILD	PARENT
MASTER GLOBAL
root MASTER
chest root
L_mid_tent01 root
R_mid_tent01 root
spine01 root
Bip01_Neck chest
L_humerus chest
R_humerus chest
weapon_bone chest
Bip01_Head Bip01_Neck
eye_left_bone Bip01_Head
eye_right_bone Bip01_Head
L_forearm L_humerus
L_front_hand L_forearm
L_weapon_bone L_forearm
L_front_hand01_01 L_front_hand
L_front_hand02_01 L_front_hand
L_front_hand03_01 L_front_hand
L_front_hand01_02 L_front_hand01_01
L_front_hand02_02 L_front_hand02_01
L_front_hand03_02 L_front_hand03_01
R_forearm R_humerus
R_front_hand R_forearm
R_weapon_bone R_forearm
R_front_hand01_01 R_front_hand
R_front_hand02_01 R_front_hand
R_front_hand03_01 R_front_hand
R_front_hand01_02 R_front_hand01_01
R_front_hand02_02 R_front_hand02_01
R_front_hand03_02 R_front_hand03_01
null_rope01_connect L_mid_tent01
Rope1_Seg01 null_rope01_connect
Rope1_Seg02 Rope1_Seg01
Rope1_Seg03 Rope1_Seg02
Rope1_Seg04 Rope1_Seg03
Rope1_Seg05 Rope1_Seg04
Rope1_Seg06 Rope1_Seg05
Rope1_Seg07 Rope1_Seg06
Rope1_Seg09 Rope1_Seg07
L_mid_hand01 Rope1_Seg09
L_mid_hand02 Rope1_Seg09
L_mid_hand03 Rope1_Seg09
null_rope02_connect R_mid_tent01
Rope2_Seg01 null_rope02_connect
Rope2_Seg02 Rope2_Seg01
Rope2_Seg03 Rope2_Seg02
Rope2_Seg04 Rope2_Seg03
Rope2_Seg05 Rope2_Seg04
Rope2_Seg06 Rope2_Seg05
Rope2_Seg07 Rope2_Seg06
Rope2_Seg09 Rope2_Seg07
R_mid_hand01 Rope2_Seg09
R_mid_hand02 Rope2_Seg09
R_mid_hand03 Rope2_Seg09
spine02 spine01
spine03 spine02
pelvis spine03
null_rope03_connect pelvis
null_rope04_connect pelvis
Rope3_Seg01 null_rope03_connect
Rope3_Seg02 Rope3_Seg01
Rope3_Seg03 Rope3_Seg02
Rope3_Seg04 Rope3_Seg03
Rope3_Seg05 Rope3_Seg04
Rope3_Seg06 Rope3_Seg05
Rope3_Seg07 Rope3_Seg06
Rope3_Seg08 Rope3_Seg07
Rope3_Seg09 Rope3_Seg08
R_rear_hand01 Rope3_Seg09
R_rear_hand02 Rope3_Seg09
R_rear_hand03 Rope3_Seg09
Rope4_Seg01 null_rope04_connect
Rope4_Seg02 Rope4_Seg01
Rope4_Seg03 Rope4_Seg02
Rope4_Seg04 Rope4_Seg03
Rope4_Seg05 Rope4_Seg04
Rope4_Seg06 Rope4_Seg05
Rope4_Seg07 Rope4_Seg06
Rope4_Seg08 Rope4_Seg07
Rope4_Seg09 Rope4_Seg08
L_rear_hand01 Rope4_Seg09
L_rear_hand02 Rope4_Seg09
L_rear_hand03 Rope4_Seg09
[BasePosition]
#SegmentName Tx, Ty, Tz, Rx, Ry, Rz, BoneLength
MASTER 0.000000 0.000000 0.000000 -90.000000 0.000000 0.000000 10.000000 
root 0.000000 0.000000 0.000000 0.000000 0.000000 0.000000 10.000000 
chest 0.000000 0.000000 0.000000 0.000000 0.000000 0.000000 10.000000 
L_mid_tent01 0.000000 0.000000 0.000000 0.000000 0.000000 0.000000 10.000000 
R_mid_tent01 0.000000 0.000000 0.000000 0.000000 0.000000 0.000000 10.000000 
spine01 0.000000 0.000000 0.000000 0.000000 0.000000 0.000000 10.000000 
Bip01_Neck 0.000000 0.000000 0.000000 0.000000 0.000000 0.000000 10.000000 
L_humerus 0.000000 0.000000 0.000000 0.000000 0.000000 0.000000 10.000000 
R_humerus 0.000000 0.000000 0.000000 0.000000 0.000000 0.000000 10.000000 
weapon_bone 0.000000 0.000000 0.000000 0.000000 0.000000 0.000000 10.000000 
Bip01_Head 0.000000 0.000000 0.000000 0.000000 0.000000 0.000000 10.000000 
eye_left_bone 0.000000 0.000000 0.000000 0.000000 0.000000 0.000000 10.000000 
eye_right_bone 0.000000 0.000000 0.000000 0.000000 0.000000 0.000000 10.000000 
L_forearm 0.000000 0.000000 0.000000 0.000000 0.000000 0.000000 10.000000 
L_front_hand 0.000000 0.000000 0.000000 0.000000 0.000000 0.000000 10.000000 
L_weapon_bone 0.000000 0.000000 0.000000 0.000000 0.000000 0.000000 10.000000 
L_front_hand01_01 0.000000 0.000000 0.000000 0.000000 0.000000 0.000000 10.000000 
L_front_hand02_01 0.000000 0.000000 0.000000 0.000000 0.000000 0.000000 10.000000 
L_front_hand03_01 0.000000 0.000000 0.000000 0.000000 0.000000 0.000000 10.000000 
L_front_hand01_02 0.000000 0.000000 0.000000 0.000000 0.000000 0.000000 10.000000 
L_front_hand02_02 0.000000 0.000000 0.000000 0.000000 0.000000 0.000000 10.000000 
L_front_hand03_02 0.000000 0.000000 0.000000 0.000000 0.000000 0.000000 10.000000 
R_forearm 0.000000 0.000000 0.000000 0.000000 0.000000 0.000000 10.000000 
R_front_hand 0.000000 0.000000 0.000000 0.000000 0.000000 0.000000 10.000000 
R_weapon_bone 0.000000 0.000000 0.000000 0.000000 0.000000 0.000000 10.000000 
R_front_hand01_01 0.000000 0.000000 0.000000 0.000000 0.000000 0.000000 10.000000 
R_front_hand02_01 0.000000 0.000000 0.000000 0.000000 0.000000 0.000000 10.000000 
R_front_hand03_01 0.000000 0.000000 0.000000 0.000000 0.000000 0.000000 10.000000 
R_front_hand01_02 0.000000 0.000000 0.000000 0.000000 0.000000 0.000000 10.000000 
R_front_hand02_02 0.000000 0.000000 0.000000 0.000000 0.000000 0.000000 10.000000 
R_front_hand03_02 0.000000 0.000000 0.000000 0.000000 0.000000 0.000000 10.000000 
null_rope01_connect 0.000000 0.000000 0.000000 0.000000 0.000000 0.000000 10.000000 
Rope1_Seg01 0.000000 0.000000 0.000000 0.000000 0.000000 0.000000 10.000000 
Rope1_Seg02 0.000000 0.000000 0.000000 0.000000 0.000000 0.000000 10.000000 
Rope1_Seg03 0.000000 0.000000 0.000000 0.000000 0.000000 0.000000 10.000000 
Rope1_Seg04 0.000000 0.000000 0.000000 0.000000 0.000000 0.000000 10.000000 
Rope1_Seg05 0.000000 0.000000 0.000000 0.000000 0.000000 0.000000 10.000000 
Rope1_Seg06 0.000000 0.000000 0.000000 0.000000 0.000000 0.000000 10.000000 
Rope1_Seg07 0.000000 0.000000 0.000000 0.000000 0.000000 0.000000 10.000000 
Rope1_Seg09 0.000000 0.000000 0.000000 0.000000 0.000000 0.000000 10.000000 
L_mid_hand01 0.000000 0.000000 0.000000 0.000000 0.000000 0.000000 10.000000 
L_mid_hand02 0.000000 0.000000 0.000000 0.000000 0.000000 0.000000 10.000000 
L_mid_hand03 0.000000 0.000000 0.000000 0.000000 0.000000 0.000000 10.000000 
null_rope02_connect 0.000000 0.000000 0.000000 0.000000 0.000000 0.000000 10.000000 
Rope2_Seg01 0.000000 0.000000 0.000000 0.000000 0.000000 0.000000 10.000000 
Rope2_Seg02 0.000000 0.000000 0.000000 0.000000 0.000000 0.000000 10.000000 
Rope2_Seg03 0.000000 0.000000 0.000000 0.000000 0.000000 0.000000 10.000000 
Rope2_Seg04 0.000000 0.000000 0.000000 0.000000 0.000000 0.000000 10.000000 
Rope2_Seg05 0.000000 0.000000 0.000000 0.000000 0.000000 0.000000 10.000000 
Rope2_Seg06 0.000000 0.000000 0.000000 0.000000 0.000000 0.000000 10.000000 
Rope2_Seg07 0.000000 0.000000 0.000000 0.000000 0.000000 0.000000 10.000000 
Rope2_Seg09 0.000000 0.000000 0.000000 0.000000 0.000000 0.000000 10.000000 
R_mid_hand01 0.000000 0.000000 0.000000 0.000000 0.000000 0.000000 10.000000 
R_mid_hand02 0.000000 0.000000 0.000000 0.000000 0.000000 0.000000 10.000000 
R_mid_hand03 0.000000 0.000000 0.000000 0.000000 0.000000 0.000000 10.000000 
spine02 0.000000 0.000000 0.000000 0.000000 0.000000 0.000000 10.000000 
spine03 0.000000 0.000000 0.000000 0.000000 0.000000 0.000000 10.000000 
pelvis 0.000000 0.000000 0.000000 0.000000 0.000000 0.000000 10.000000 
null_rope03_connect 0.000000 0.000000 0.000000 0.000000 0.000000 0.000000 10.000000 
null_rope04_connect 0.000000 0.000000 0.000000 0.000000 0.000000 0.000000 10.000000 
Rope3_Seg01 0.000000 0.000000 0.000000 0.000000 0.000000 0.000000 10.000000 
Rope3_Seg02 0.000000 0.000000 0.000000 0.000000 0.000000 0.000000 10.000000 
Rope3_Seg03 0.000000 0.000000 0.000000 0.000000 0.000000 0.000000 10.000000 
Rope3_Seg04 0.000000 0.000000 0.000000 0.000000 0.000000 0.000000 10.000000 
Rope3_Seg05 0.000000 0.000000 0.000000 0.000000 0.000000 0.000000 10.000000 
Rope3_Seg06 0.000000 0.000000 0.000000 0.000000 0.000000 0.000000 10.000000 
Rope3_Seg07 0.000000 0.000000 0.000000 0.000000 0.000000 0.000000 10.000000 
Rope3_Seg08 0.000000 0.000000 0.000000 0.000000 0.000000 0.000000 10.000000 
Rope3_Seg09 0.000000 0.000000 0.000000 0.000000 0.000000 0.000000 10.000000 
R_rear_hand01 0.000000 0.000000 0.000000 0.000000 0.000000 0.000000 10.000000 
R_rear_hand02 0.000000 0.000000 0.000000 0.000000 0.000000 0.000000 10.000000 
R_rear_hand03 0.000000 0.000000 0.000000 0.000000 0.000000 0.000000 10.000000 
Rope4_Seg01 0.000000 0.000000 0.000000 0.000000 0.000000 0.000000 10.000000 
Rope4_Seg02 0.000000 0.000000 0.000000 0.000000 0.000000 0.000000 10.000000 
Rope4_Seg03 0.000000 0.000000 0.000000 0.000000 0.000000 0.000000 10.000000 
Rope4_Seg04 0.000000 0.000000 0.000000 0.000000 0.000000 0.000000 10.000000 
Rope4_Seg05 0.000000 0.000000 0.000000 0.000000 0.000000 0.000000 10.000000 
Rope4_Seg06 0.000000 0.000000 0.000000 0.000000 0.000000 0.000000 10.000000 
Rope4_Seg07 0.000000 0.000000 0.000000 0.000000 0.000000 0.000000 10.000000 
Rope4_Seg08 0.000000 0.000000 0.000000 0.000000 0.000000 0.000000 10.000000 
Rope4_Seg09 0.000000 0.000000 0.000000 0.000000 0.000000 0.000000 10.000000 
L_rear_hand01 0.000000 0.000000 0.000000 0.000000 0.000000 0.000000 10.000000 
L_rear_hand02 0.000000 0.000000 0.000000 0.000000 0.000000 0.000000 10.000000 
L_rear_hand03 0.000000 0.000000 0.000000 0.000000 0.000000 0.000000 10.000000 
#Beginning of Data. Separated by tabs
#Fr	Tx	Ty	Tz	Rx	Ry	Rz	SF
[MASTER]
7 0.000000 0.000000 0.000000 0.001660 0.001660 0.001660 0.000000
8 0.000000 0.000000 0.000000 0.001660 0.001660 0.001660 0.000000
[root]
7 -17.971817 -110.937340 455.928558 -87.878250 -48.187599 -90.994858 469.575287
8 -18.773254 -88.832214 551.308350 -88.368073 -46.527218 -90.747131 558.734680
[chest]
7 -84.512650 -34.090519 0.000000 2.246308 -1.915231 -124.330879 91.129311
8 -84.512650 -34.090519 0.000000 2.185570 -1.959812 -125.385941 91.129311
[L_mid_tent01]
7 27.368044 22.138254 -250.356644 -18.149946 -7.870511 86.343109 252.819229
8 27.365673 22.139622 -250.341263 -17.261345 -9.288774 77.344345 252.803879
[R_mid_tent01]
7 23.228794 24.509907 226.238495 -171.479218 4.689757 82.317055 228.744751
8 23.228794 24.509907 226.238495 -171.209381 4.923607 74.920761 228.744751
[spine01]
7 -0.361383 -0.195265 0.000000 0.001945 0.001315 21.883089 0.410763
8 -0.361383 -0.195265 0.000000 0.001944 0.001316 21.789896 0.410763
[Bip01_Neck]
7 165.484543 71.581718 0.000119 175.896118 1.177290 24.871181 180.302734
8 165.484543 71.581718 0.000119 175.896118 1.177290 24.871183 180.302734
[L_humerus]
7 -13.983130 -135.272980 -120.471481 -91.668320 0.804972 -167.458099 181.680161
8 -13.983130 -135.272980 -120.471481 -90.364586 0.851523 -155.385544 181.680161
[R_humerus]
7 -13.983309 -135.273102 125.287651 103.000732 1.729697 -169.271942 184.909012
8 -13.983309 -135.273102 125.287651 101.451782 -0.504378 -149.727646 184.909012
[weapon_bone]
7 235.964890 -300.705902 0.000000 0.000000 -89.951546 -128.212341 382.234833
8 235.964890 -300.705902 0.000000 0.000000 -89.951546 -128.212341 382.234833
[Bip01_Head]
7 102.819809 23.735479 5.410357 3.150732 3.423701 -20.839092 105.662476
8 102.819809 23.735487 5.410350 3.150731 3.423701 -20.839090 105.662476
[eye_left_bone]
7 -24.626970 125.451866 -64.772606 0.000000 -90.000000 -99.840431 143.318359
8 -24.626970 125.451866 -64.772606 0.000000 -90.000000 -99.840431 143.318359
[eye_right_bone]
7 -24.626970 125.451866 64.327362 0.000000 -89.960434 80.159386 143.117676
8 -24.626970 125.451866 64.327362 0.000000 -89.960434 80.159386 143.117676
[L_forearm]
7 322.776093 0.000000 -0.000119 0.000017 0.002347 -89.149834 322.776093
8 322.776093 0.000000 -0.000119 0.000017 0.002347 -89.149834 322.776093
[L_front_hand]
7 241.149185 -0.042021 -3.300071 -177.737167 -0.112065 -78.609245 241.171753
8 241.149185 -0.042021 -3.300071 -177.730484 -0.065308 -79.757401 241.171753
[L_weapon_bone]
7 155.793594 2.812531 0.000381 0.002125 0.000997 39.751297 155.818970
8 155.683273 3.607108 0.000499 0.002123 0.001001 39.519989 155.725052
[L_front_hand01_01]
7 86.095154 20.947098 -0.655860 0.405585 -0.442306 -4.620490 88.609184
8 86.095154 20.947098 -0.655860 0.405585 -0.442306 -4.620490 88.609184
[L_front_hand02_01]
7 86.935165 -11.437475 24.513514 116.959450 3.630818 1.495453 91.046425
8 86.935165 -11.437475 24.513514 116.959450 3.630817 1.495453 91.046425
[L_front_hand03_01]
7 86.637497 -14.123976 -20.424902 -118.420097 -4.656304 -0.152527 90.126129
8 86.637497 -14.123976 -20.424902 -118.420113 -4.656303 -0.152527 90.126129
[L_front_hand01_02]
7 71.020905 -0.000179 0.000030 0.000004 -0.000005 -8.379269 71.020905
8 71.020905 -0.000179 0.000030 0.000004 -0.000005 -8.379269 71.020905
[L_front_hand02_02]
7 71.020927 -0.000119 0.000060 -0.000005 -0.000004 -8.379259 71.020927
8 71.020927 -0.000119 0.000060 -0.000005 -0.000004 -8.379259 71.020927
[L_front_hand03_02]
7 71.020905 -0.000060 0.000060 0.000015 -0.000040 -8.379267 71.020905
8 71.020905 -0.000060 0.000060 0.000015 -0.000040 -8.379267 71.020905
[R_forearm]
7 322.776428 -0.000060 0.000030 0.213286 0.004341 -91.714607 322.776428
8 322.776428 -0.000060 0.000030 0.213273 0.004905 -92.017464 322.776428
[R_front_hand]
7 238.847015 -0.006795 2.210259 -1.699746 -0.305010 -88.812691 238.857239
8 238.847015 -0.006795 2.210259 -1.700076 -0.304605 -88.807030 238.857239
[R_weapon_bone]
7 155.664093 0.002503 -0.000030 0.003418 0.001365 -97.127029 155.664078
8 155.664093 0.002503 -0.000030 0.003397 0.001417 -98.883179 155.664078
[R_front_hand01_01]
7 87.624611 14.231146 22.918642 -116.960213 3.496675 -1.324139 91.683487
8 87.624611 14.231146 22.918642 -116.960213 3.496675 -1.324139 91.683487
[R_front_hand02_01]
7 89.356956 14.367283 -19.491137 118.419647 -4.257089 0.609827 92.579636
8 89.356956 14.367283 -19.491137 118.419632 -4.257088 0.609827 92.579636
[R_front_hand03_01]
7 87.286232 -22.307278 -0.143439 -0.387970 -0.231462 4.232001 90.091743
8 87.286232 -22.307278 -0.143439 -0.387970 -0.231462 4.232001 90.091743
[R_front_hand01_02]
7 71.020905 0.000060 0.000119 -0.000005 -0.000020 8.379271 71.020905
8 71.020905 0.000060 0.000119 -0.000005 -0.000020 8.379271 71.020905
[R_front_hand02_02]
7 71.020844 -0.000030 -0.000119 0.000000 -0.000021 8.379271 71.020836
8 71.020844 -0.000030 -0.000119 0.000000 -0.000021 8.379271 71.020836
[R_front_hand03_02]
7 71.020905 0.000000 0.000030 -0.000001 -0.000020 8.379275 71.020905
8 71.020905 0.000000 0.000030 -0.000001 -0.000020 8.379275 71.020905
[null_rope01_connect]
7 328.732483 0.000000 -0.000238 114.892769 -70.387794 -61.513355 328.732483
8 328.732483 0.000000 -0.000238 118.366692 -70.651291 -57.558052 328.732483
[Rope1_Seg01]
7 0.000063 -0.000070 0.000026 96.852493 -32.699333 -173.303818 0.000098
8 0.000061 -0.000069 0.000031 96.543968 -35.616390 -173.553513 0.000097
[Rope1_Seg02]
7 139.999863 -0.000179 0.000000 0.203994 -17.806877 5.102541 139.999863
8 139.999863 -0.000179 0.000000 0.789723 -9.552769 1.082156 139.999863
[Rope1_Seg03]
7 139.999924 0.000060 -0.000060 -33.515453 -63.278931 14.273167 139.999924
8 139.999924 0.000060 -0.000060 -5.553477 -41.019665 0.574144 139.999924
[Rope1_Seg04]
7 139.999924 -0.000060 -0.000119 -24.616514 -23.521214 5.874562 139.999924
8 139.999924 -0.000060 -0.000119 -35.069603 -58.657364 -9.003894 139.999924
[Rope1_Seg05]
7 139.999832 0.000119 -0.000060 116.645149 -7.586472 58.304420 139.999832
8 139.999832 0.000119 -0.000060 80.781181 -14.600950 51.095963 139.999832
[Rope1_Seg06]
7 139.999954 0.000119 -0.000060 8.682074 19.430029 -5.371313 139.999954
8 139.999954 0.000119 -0.000060 47.745281 33.056606 13.539449 139.999954
[Rope1_Seg07]
7 139.999985 0.000060 0.000000 1.762423 6.944582 -3.003740 139.999985
8 139.999985 0.000060 0.000000 3.553906 8.486466 -2.677157 139.999985
[Rope1_Seg09]
7 121.602913 0.000119 -0.000089 -89.793175 -1.359789 0.847147 121.602913
8 121.602913 0.000119 -0.000089 -89.793175 -1.359789 0.847147 121.602913
[L_mid_hand01]
7 103.859421 1.038730 8.195221 104.352036 0.341479 -0.444583 104.187431
8 103.859421 1.038730 8.195221 104.352043 0.341479 -0.444583 104.187431
[L_mid_hand02]
7 105.572853 -4.139662 -10.864139 -135.608444 3.905687 -3.381056 106.211075
8 105.572853 -4.139662 -10.864139 -135.608444 3.905687 -3.381056 106.211075
[L_mid_hand03]
7 104.641464 17.579376 -3.913581 -18.761520 -0.324361 2.942913 106.179977
8 104.641464 17.579376 -3.913581 -18.761515 -0.324361 2.942912 106.179977
[null_rope02_connect]
7 328.732849 0.000179 -0.000119 126.010941 80.040115 -110.088722 328.732849
8 328.732849 0.000179 -0.000119 129.044220 79.632492 -112.844887 328.732849
[Rope2_Seg01]
7 0.000146 0.000114 -0.000026 -30.338245 -33.270092 13.577282 0.000187
8 0.000145 0.000114 -0.000031 -24.547298 -36.735073 6.684941 0.000187
[Rope2_Seg02]
7 139.999741 -0.000060 -0.000119 -2.579085 -5.513299 14.736087 139.999756
8 139.999741 -0.000060 -0.000119 -2.099545 -1.325144 8.800330 139.999756
[Rope2_Seg03]
7 140.000107 0.000030 0.000000 4.481478 -7.796038 51.217228 140.000107
8 140.000107 0.000030 0.000000 -2.690791 -1.033670 36.975819 140.000107
[Rope2_Seg04]
7 139.999802 0.000000 -0.000060 -17.249937 -34.874866 -11.684487 139.999802
8 139.999802 0.000000 -0.000060 9.875639 -11.721738 48.528442 139.999802
[Rope2_Seg05]
7 139.999985 -0.000060 0.000119 -29.729755 -15.282124 -37.995575 139.999985
8 139.999985 -0.000060 0.000119 -33.123764 -52.746819 -50.777748 139.999985
[Rope2_Seg06]
7 139.999893 -0.000030 -0.000119 -4.801043 0.510759 -8.799976 139.999893
8 139.999893 -0.000030 -0.000119 -11.086004 -1.930338 -15.474241 139.999893
[Rope2_Seg07]
7 139.999893 0.000060 -0.000060 -1.812940 0.544882 -3.826285 139.999893
8 139.999893 0.000060 -0.000060 -3.363534 0.251952 -5.643588 139.999893
[Rope2_Seg09]
7 121.338966 0.000089 -0.000060 33.793236 -1.359788 -0.847141 121.338966
8 121.338966 0.000089 -0.000060 33.793236 -1.359788 -0.847141 121.338966
[R_mid_hand01]
7 104.680779 11.144459 -10.335981 -47.384266 2.963522 5.452605 105.778534
8 104.680779 11.144459 -10.335981 -47.384243 2.963521 5.452602 105.778534
[R_mid_hand02]
7 104.070427 2.443552 8.231699 75.626297 -2.250001 1.111093 104.424065
8 104.070427 2.443552 8.231699 75.626297 -2.250001 1.111093 104.424065
[R_mid_hand03]
7 106.028137 -11.221827 -5.996406 -164.381927 2.495984 -6.140522 106.788818
8 106.028137 -11.221827 -5.996406 -164.381927 2.495984 -6.140520 106.788818
[spine02]
7 129.756927 0.001550 0.000119 -2.215952 -3.627536 24.552694 129.756927
8 129.756927 0.001550 0.000119 -1.984399 -3.696982 20.921961 129.756927
[spine03]
7 79.074806 0.007070 -0.399061 3.917661 6.037937 36.323944 79.075813
8 79.068016 0.008248 -0.465569 3.507419 5.604327 31.319365 79.069382
[pelvis]
7 169.435242 0.051022 0.000000 -6.886062 -2.826483 13.299514 169.435257
8 169.435242 0.051022 0.000000 -6.749365 -2.797810 13.024084 169.435257
[null_rope03_connect]
7 -1.257226 -2.466202 137.391083 132.938538 -84.632202 -90.377411 137.418976
8 -1.257226 -2.466202 137.391083 135.132202 -84.482750 -85.273872 137.418976
[null_rope04_connect]
7 -1.259640 -2.480268 -137.844437 132.938538 -84.632202 -90.377411 137.872513
8 -1.259640 -2.480268 -137.844437 135.132202 -84.482750 -85.273872 137.872513
[Rope3_Seg01]
7 -0.000046 0.000088 -0.000008 -127.378616 -54.090843 -90.141632 0.000100
8 -0.000046 0.000084 -0.000008 -128.844803 -55.414589 -88.486511 0.000096
[Rope3_Seg02]
7 139.999924 -0.000119 0.000060 -7.489226 19.355406 -20.236725 139.999924
8 139.999924 -0.000119 0.000060 -3.279057 10.991721 -10.776520 139.999924
[Rope3_Seg03]
7 139.999924 -0.000119 0.000119 -19.559420 36.451416 -32.367477 139.999924
8 139.999924 -0.000119 0.000119 -9.381341 21.742077 -19.491537 139.999924
[Rope3_Seg04]
7 139.999924 0.000119 0.000000 -6.359934 17.304777 -14.995459 139.999924
8 139.999924 0.000119 0.000000 -9.605228 25.621914 -16.837389 139.999924
[Rope3_Seg05]
7 139.999924 -0.000238 0.000060 -0.772191 0.016163 -6.703969 139.999924
8 139.999924 -0.000238 0.000060 -7.086517 17.484383 -16.986984 139.999924
[Rope3_Seg06]
7 139.999893 -0.000119 -0.000060 -0.284107 0.776651 -2.740612 139.999893
8 139.999893 -0.000119 -0.000060 -3.612280 9.250112 -9.922793 139.999893
[Rope3_Seg07]
7 139.999771 0.000060 -0.000119 -0.044697 0.856799 -1.566578 139.999771
8 139.999771 0.000060 -0.000119 -1.217997 4.641135 -3.577625 139.999771
[Rope3_Seg08]
7 139.999985 -0.000060 0.000000 0.200304 0.507797 -0.932219 139.999985
8 139.999985 -0.000060 0.000000 -0.360579 2.528601 -1.841680 139.999985
[Rope3_Seg09]
7 90.185997 -0.000179 -0.000060 89.793228 -1.359877 -0.847183 90.185997
8 90.185997 -0.000179 -0.000060 89.793228 -1.359877 -0.847183 90.185997
[R_rear_hand01]
7 103.366196 -6.073594 -10.757982 -156.049316 6.070419 -2.795869 104.101845
8 103.366196 -6.073594 -10.757982 -156.049316 6.070419 -2.795869 104.101845
[R_rear_hand02]
7 100.509819 12.039542 -7.992327 -38.708427 1.958051 5.461186 101.543350
8 100.509819 12.039542 -7.992327 -38.708431 1.958051 5.461185 101.543350
[R_rear_hand03]
7 101.539970 5.215704 5.435467 84.307632 -2.361033 4.099039 101.819031
8 101.539970 5.215704 5.435467 84.307625 -2.361032 4.099037 101.819031
[Rope4_Seg01]
7 -0.000005 0.000044 -0.000089 27.022448 -50.186432 -69.250511 0.000100
8 -0.000006 0.000038 -0.000092 29.362314 -48.965118 -72.016823 0.000099
[Rope4_Seg02]
7 139.999985 0.000060 0.000119 -12.119286 -42.712498 43.353107 139.999985
8 139.999985 0.000060 0.000119 -5.605958 -29.902609 26.091942 139.999985
[Rope4_Seg03]
7 139.999924 0.000000 -0.000238 7.277147 -19.987608 18.346569 139.999924
8 139.999924 0.000000 -0.000238 4.515181 -22.587029 13.150556 139.999924
[Rope4_Seg04]
7 139.999985 0.000000 0.000119 5.103988 -0.835287 13.566359 139.999985
8 139.999985 0.000000 0.000119 7.425093 -10.666882 16.237978 139.999985
[Rope4_Seg05]
7 139.999802 -0.000060 -0.000119 1.762433 1.118225 6.304314 139.999802
8 139.999802 -0.000060 -0.000119 7.476716 -4.749024 21.631258 139.999802
[Rope4_Seg06]
7 139.999924 0.000000 0.000060 0.759742 0.047908 2.722557 139.999924
8 139.999924 0.000000 0.000060 2.942555 -0.911014 11.490605 139.999924
[Rope4_Seg07]
7 139.999802 0.000000 0.000000 0.536785 0.057442 1.817148 139.999802
8 139.999802 0.000000 0.000000 1.184970 -0.420687 5.405281 139.999802
[Rope4_Seg08]
7 139.999924 0.000000 0.000119 -1.214636 0.043199 1.119039 139.999924
8 139.999924 0.000000 0.000119 -0.938151 -0.175974 3.079792 139.999924
[Rope4_Seg09]
7 90.185791 0.000060 0.000060 -135.617828 2.228885 0.850567 90.185791
8 90.185791 0.000060 0.000060 -135.617828 2.228885 0.850567 90.185791
[L_rear_hand01]
7 101.696655 -8.392275 -7.654577 -38.746342 0.246096 177.290207 102.329041
8 101.696655 -8.392275 -7.654577 -38.746338 0.246096 177.290207 102.329041
[L_rear_hand02]
7 102.726799 -1.568258 5.773216 84.315163 -1.142796 176.247437 102.900848
8 102.726799 -1.568258 5.773216 84.315163 -1.142796 176.247437 102.900848
[L_rear_hand03]
7 104.552910 9.721220 -10.420293 -155.747955 -4.630845 179.564758 105.519653
8 104.552910 9.721220 -10.420293 -155.747955 -4.630845 179.564758 105.519653
